<?xml version="1.0" encoding="utf-8"?>
<!-- Generator: Adobe Illustrator 19.0.0, SVG Export Plug-In . SVG Version: 6.00 Build 0)  -->
<svg version="1.1" id="Layer_1" xmlns="http://www.w3.org/2000/svg" xmlns:xlink="http://www.w3.org/1999/xlink" x="0px" y="0px"
	 viewBox="174 114.9 960 560.1" style="enable-background:new 174 114.9 960 560.1;" xml:space="preserve">
<style type="text/css">
	.st0{fill:#C6203D;}
</style>
<path id="XMLID_773_" class="st0" d="M419.6,168.1l0.3-0.1v-49.1h-0.5c-15.1,2-29.3,6.5-42.2,13.6c-12.9,7.1-24.2,16.1-33.4,26.8
	c-9.3,10.7-16.6,23.3-21.7,37.4c-4.6,12.6-6.9,26.1-7,40.2l0.9-1.6c0.3-13.4,2.6-26.3,7-38.3c5.1-14,12.3-26.6,21.5-37.2
	c9.2-10.6,20.3-19.6,33.2-26.6c12.6-6.8,26.5-11.3,41.3-13.3v47.5c-18.4,6.4-31.2,15.9-38,28.3s-10.3,27.9-10.3,46v0.5H419v114.6
	h0.9V241.2h-48.3c0.1-17.7,3.5-32.9,10.2-45.1C388.5,183.8,401.3,174.4,419.6,168.1 M282.6,168.1l0.3-0.1v-49.1h-0.5
	c-15.1,2-29.3,6.6-42.2,13.6c-12.9,7.1-24.2,16.1-33.4,26.9c-9.2,10.7-16.5,23.3-21.7,37.4c-5.1,14.2-7.5,29.5-7,45.5v114.8h104.8
	v-116h-48.3c0-17.7,3.5-32.9,10.2-45.1C251.5,183.8,264.3,174.4,282.6,168.1z M233.7,241.6v0.5H282v114.2H179v-114
	c-0.5-15.9,1.8-31.1,6.9-45.2c5.1-14.1,12.4-26.6,21.5-37.2c9.2-10.6,20.3-19.6,33.2-26.6c12.7-6.9,26.6-11.4,41.4-13.4v47.5
	c-18.4,6.4-31.2,15.9-38,28.3C237.2,208.1,233.7,223.5,233.7,241.6z M316,273.2v55.7h-0.9v-55.7H316z"/>
<path id="XMLID_770_" class="st0" d="M1025.3,625.7l-0.3,0.1v49.1l0.5-0.1c15.1-1.9,29.3-6.5,42.2-13.6
	c12.9-7.1,24.2-16.1,33.4-26.8c9.2-10.7,16.5-23.3,21.7-37.4c5.1-14.2,7.5-29.5,7-45.5V436.7H1025v116h48.3
	c0,17.7-3.5,32.9-10.2,45.1C1056.4,610,1043.7,619.4,1025.3,625.7 M1074.2,552.2v-0.4h-48.3V437.6h103v113.9
	c0.5,15.9-1.8,31.1-6.9,45.2c-5.1,14.1-12.4,26.6-21.5,37.2c-9.2,10.6-20.4,19.6-33.2,26.6c-12.7,6.9-26.6,11.4-41.4,13.4v-47.5
	c18.4-6.4,31.2-15.9,38-28.3C1070.8,585.7,1074.2,570.3,1074.2,552.2z"/>
<path id="XMLID_767_" class="st0" d="M890.2,466.7v54.7c0.3,0,0.6,0,0.9,0v-54.7C890.8,466.7,890.5,466.7,890.2,466.7 M995.1,551.5
	v-75.7h-0.9v75.7c0.5,15.9-1.8,31.2-6.9,45.2c-5.1,14.1-12.3,26.6-21.5,37.2c-9.2,10.6-20.4,19.6-33.2,26.6
	c-12.7,6.9-26.6,11.4-41.4,13.4v-47.5c18.4-6.4,31.2-15.9,38-28.3s10.3-27.9,10.3-46v-0.4h-2.3c0,0.3,0,0.6,0,0.9h1.4
	c-0.1,17.7-3.5,32.9-10.2,45.1c-6.7,12.3-19.5,21.7-37.8,28l-0.3,0.1v49.1l0.5-0.1c15.1-1.9,29.3-6.5,42.2-13.6s24.2-16.1,33.4-26.8
	s16.5-23.3,21.7-37.5C993.2,582.9,995.6,567.5,995.1,551.5z"/>
<path id="XMLID_764_" class="st0" d="M333.4,232.6h-15.9l-29,50.6h13.1l5.6-10h36.1l5.8,10h12.7L333.4,232.6 M311.8,265l13.6-24.2
	l13.7,24.2H311.8z"/>
<polyline id="XMLID_763_" class="st0" points="384.5,232.6 384.5,242.1 408.3,242.1 408.3,283.2 420,283.2 420,242.1 443.7,242.1 
	443.7,232.6 384.5,232.6 "/>
<polyline id="XMLID_762_" class="st0" points="467.4,274.3 467.4,261.4 507.6,261.4 507.6,253.4 467.4,253.4 467.4,241.5 
	509.7,241.5 509.7,232.6 455.9,232.6 455.9,283.2 510.1,283.2 510.1,274.3 467.4,274.3 "/>
<path id="XMLID_761_" class="st0" d="M573.5,265v1.1c0,5.2-1.9,7.3-7.4,7.8l-15.5,0.3c-15.8,0-17-1.1-17-15.8
	c0-10.9,0.6-13.7,3.5-15.2c2.4-1.3,5.8-1.6,17.7-1.6c16.7,0,18.2,0.7,18.2,8h11.1c0-6.1-1.1-10.5-3.3-12.9c-3.2-3.6-9-4.5-26.5-4.5
	c-16,0-21.2,0.6-25.6,3c-5.3,3-6.7,7.7-6.7,21.8c0,7.1,0.4,13.1,1.1,15.6c1,3.9,2.9,6.6,5.8,8.2c4.5,2.4,8.2,2.8,28.4,2.8
	c16.5,0,21.2-0.9,24.7-4.8c2.1-2.3,2.9-5.8,2.9-13V265H573.5"/>
<polyline id="XMLID_760_" class="st0" points="649.9,232.6 649.9,252.7 610,252.7 610,232.6 598.3,232.6 598.3,283.2 610,283.2 
	610,262.1 649.9,262.1 649.9,283.2 661.6,283.2 661.6,232.6 649.9,232.6 "/>
<polyline id="XMLID_759_" class="st0" points="307.2,370.6 307.2,357.7 347.4,357.7 347.4,349.7 307.2,349.7 307.2,337.8 
	349.4,337.8 349.4,328.9 295.6,328.9 295.6,379.5 349.9,379.5 349.9,370.6 307.2,370.6 "/>
<polyline id="XMLID_758_" class="st0" points="419,328.9 419.3,371 381.3,328.9 363.1,328.9 363.1,379.5 374.4,379.5 374.2,337.6 
	412,379.5 430.2,379.5 430.2,328.9 419,328.9 "/>
<polyline id="XMLID_757_" class="st0" points="441.4,328.9 441.4,338.4 465.2,338.4 465.2,379.5 476.9,379.5 476.9,338.4 
	500.7,338.4 500.7,328.9 441.4,328.9 "/>
<polyline id="XMLID_756_" class="st0" points="563.5,328.9 563.5,349 523.6,349 523.6,328.9 511.9,328.9 511.9,379.5 523.6,379.5 
	523.6,358.4 563.5,358.4 563.5,379.5 575.2,379.5 575.2,328.9 563.5,328.9 "/>
<path id="XMLID_755_" class="st0" d="M641.5,328.9v27.2c-0.1,7.1-0.1,7.1-0.2,8c-0.5,3.2-2.1,5-5,5.8c-1.7,0.5-8,0.8-14.9,0.8
	c-15.2,0-18.1-1-19-6.4c-0.4-2.1-0.4-2.1-0.4-8.9v-26.5h-11.7V359c0,9.3,0.8,12.8,3.3,15.8c3.7,4.2,9,5.2,26.6,5.2
	c17.9,0,22.2-0.5,26.5-3c4.9-2.7,6.4-6.7,6.4-16.3v-31.8H641.5"/>
<path id="XMLID_754_" class="st0" d="M724.4,353.8c-3.2-3.4-7.8-4.2-23-4.2h-8.6c-8,0-10.9-0.3-12.6-1.3c-1.4-0.8-2.1-2.3-2.1-4.5
	c0-2.4,0.9-4.1,2.7-4.9c2.3-1.1,8.9-1.7,18.5-1.7c5.6,0,10.5,0.6,12.6,1.6c1.6,0.8,2.4,2.3,2.4,5.2h11.4v-1c0-7.8-2.2-11.2-8.5-13
	c-3.5-1.1-8.9-1.4-19.1-1.4c-16.7,0-24.4,1.2-27.8,4.4c-2.4,2.1-3.8,6.8-3.8,12.4c0,4.5,1.1,7.7,3.6,9.8c2.8,2.6,7,3.4,17.7,3.5h7.3
	c13.8,0.1,13.9,0.1,16,0.5c3.5,0.8,4.8,2.2,4.8,5.2c0,1.6-0.5,3.1-1.5,4.3c-0.9,1.1-2.4,1.6-5.2,2c-5.5,0.7-9.4,0.9-15.7,0.9
	c-7.4,0-11.4-0.5-13.2-1.5c-1.4-0.8-2-2.6-2-5.8v-0.5h-11.4c-0.1,1-0.1,2.1-0.1,2.6c0,4.8,1,7.8,3.3,10c3.2,3,8.9,3.9,27.1,3.9
	c17.1,0,23.6-1.1,26.9-4.3c2.5-2.4,3.6-6.1,3.6-11.4C727.5,359.3,726.5,356,724.4,353.8"/>
<rect id="XMLID_753_" x="741.3" y="328.9" class="st0" width="11.7" height="50.6"/>
<path id="XMLID_750_" class="st0" d="M808.4,328.9h-15.9l-29,50.6h13.1l5.6-10h36.1l5.8,10h12.7L808.4,328.9 M786.8,361.3l13.6-24.2
	l13.7,24.2H786.8z"/>
<path id="XMLID_749_" class="st0" d="M902.6,353.7c-3.2-3.4-7.8-4.2-23-4.2H871c-8,0-10.8-0.3-12.6-1.3c-1.4-0.8-2.1-2.3-2.1-4.5
	c0-2.4,0.9-4.1,2.7-4.9c2.3-1.1,8.9-1.7,18.5-1.7c5.6,0,10.5,0.6,12.6,1.6c1.6,0.8,2.3,2.3,2.4,5.2H904v-1c0-7.8-2.2-11.2-8.5-13
	c-3.5-1.1-9-1.4-19.1-1.4c-16.7,0-24.4,1.2-27.8,4.4c-2.4,2.1-3.8,6.8-3.8,12.4c0,4.5,1.1,7.7,3.6,9.8c2.8,2.6,7,3.4,17.7,3.5h7.3
	c13.8,0.1,13.9,0.1,16,0.5c3.5,0.8,4.8,2.2,4.8,5.2c0,1.6-0.5,3.1-1.5,4.3c-0.9,1.1-2.3,1.6-5.2,2c-5.5,0.7-9.4,0.9-15.7,0.9
	c-7.4,0-11.4-0.5-13.2-1.5c-1.4-0.8-2-2.6-2-5.8v-0.5h-11.5c-0.1,1-0.1,2.1-0.1,2.6c0,4.8,1,7.8,3.3,10c3.2,3,8.9,3.9,27.1,3.9
	c17.1,0,23.6-1.1,26.9-4.3c2.5-2.4,3.6-6.1,3.6-11.4C905.7,359.3,904.7,356,902.6,353.7"/>
<polyline id="XMLID_748_" class="st0" points="915.1,328.9 915.1,338.4 938.9,338.4 938.9,379.5 950.6,379.5 950.6,338.4 
	974.4,338.4 974.4,328.9 915.1,328.9 "/>
<polyline id="XMLID_747_" class="st0" points="307.3,466.3 307.3,425.2 295.6,425.2 295.6,475.8 344.3,475.8 344.3,466.3 
	307.3,466.3 "/>
<path id="XMLID_744_" class="st0" d="M421.8,440.4c-0.4-5.1-1.6-8.3-3.7-10.7c-3.8-4.1-8.6-5-26.5-5c-9.3,0-16.8,0.2-19.4,0.4
	c-6.5,0.5-10.1,1.7-12.8,4.1c-3.6,3.2-4.8,7.9-4.8,19.7c0,8.3,0.1,11,0.6,14.3c0.7,5,2.9,8.5,6.2,10.3c4.3,2.3,8.5,2.8,24,2.8
	c7,0,16.2-0.2,18.6-0.3c6.4-0.4,10.2-1.6,13-4c3.9-3.4,5.1-8.3,5.1-20.9C422.1,445.4,422,442.7,421.8,440.4 M408.1,463.9
	c-2,2.3-5.3,2.8-18.4,2.8c-14.5,0-16.9-0.2-19.7-1.8c-2.8-1.4-3.6-4.6-3.6-14.5c0-16.1,0.3-16.3,21.9-16.3c21.8,0,22,0.1,22,16
	C410.4,458.8,409.9,462,408.1,463.9z"/>
<path id="XMLID_741_" class="st0" d="M502.2,440.4c-0.5-5.1-1.6-8.3-3.7-10.7c-3.8-4.1-8.6-5-26.5-5c-9.3,0-16.8,0.2-19.4,0.4
	c-6.5,0.5-10.1,1.7-12.8,4.1c-3.7,3.2-4.8,7.9-4.8,19.7c0,8.3,0.2,11,0.6,14.3c0.7,5,2.9,8.5,6.2,10.3c4.3,2.4,8.5,2.8,24,2.8
	c7,0,16.2-0.2,18.6-0.3c6.4-0.4,10.2-1.6,13-4c3.9-3.4,5.1-8.3,5.1-20.9C502.6,445.4,502.5,442.7,502.2,440.4 M488.6,463.9
	c-2.1,2.3-5.3,2.8-18.4,2.8c-14.5,0-16.9-0.2-19.7-1.8c-2.8-1.4-3.6-4.6-3.6-14.5c0-16.1,0.3-16.3,21.9-16.3c21.8,0,22,0.1,22,16
	C490.9,458.8,490.3,462,488.6,463.9z"/>
<polyline id="XMLID_740_" class="st0" points="547.3,450 579.4,425.2 562.7,425.2 536.9,445.4 528.4,445.4 528.4,425.2 516.7,425.2 
	516.7,475.8 528.4,475.8 528.4,454.7 536.7,454.7 564.4,475.8 582,475.8 547.3,450 "/>
<rect id="XMLID_739_" x="592.4" y="425.2" class="st0" width="11.7" height="50.6"/>
<polyline id="XMLID_738_" class="st0" points="675.5,425.2 675.7,467.3 637.7,425.2 619.6,425.2 619.6,475.8 630.9,475.8 
	630.6,433.9 668.4,475.8 686.6,475.8 686.6,425.2 675.5,425.2 "/>
<path id="XMLID_737_" class="st0" d="M731.7,448.7v7.6h22.5c0,3.5-0.4,5.9-1.4,7.2c-2.3,3.3-3.9,3.6-18.9,3.6
	c-13.7,0-16.6-0.4-18.8-2.4c-2.1-1.8-2.7-5.2-2.7-15.1c0-7.9,0.5-11.2,2.1-13c2-2.3,4.8-2.7,23-2.7c9.9,0,12.4,0.3,14.4,1.9
	c1.4,1.1,1.8,2.4,1.9,5.5h11.5c0-5.6-1.1-9.6-3.3-12c-3.2-3.6-8.5-4.7-23.3-4.7c-14.9,0-20.3,0.2-25,0.9c-4,0.5-7,1.9-9.1,4.2
	c-3.3,3.6-4.1,7.8-4.1,21.2c0,7.2,0.2,10.5,0.8,13.4c1.1,5.4,3.6,8.3,8.4,10.2c3.1,1.2,9.6,1.7,23.1,1.7c15.2,0,19.6-0.2,22.3-0.8
	c3.9-1,6.4-2.7,8-5.4c1.8-3.3,2.3-6.7,2.3-15.9v-5.4L731.7,448.7"/>
<polyline id="XMLID_736_" class="st0" points="852.1,434 852.1,425.2 800.5,425.2 800.5,475.8 812.1,475.8 812.1,455.9 850,455.9 
	850,447.1 812.1,447.1 812.1,434 852.1,434 "/>
<path id="XMLID_733_" class="st0" d="M930.5,440.4c-0.1-1-0.2-1.9-0.3-2.8c-0.1-0.3-0.1-0.6-0.2-0.9c-0.6-3.1-1.7-5.3-3.2-7
	c-3.8-4.1-8.6-5-26.5-5c-9.2,0-16.8,0.2-19.4,0.4c-6.5,0.5-10.1,1.7-12.8,4.1c-3.6,3.2-4.8,7.9-4.8,19.7c0,8.3,0.1,11,0.6,14.3
	c0.7,5,2.9,8.5,6.2,10.3c4,2.1,7.8,2.7,20.1,2.8c0.3,0,0.6,0,0.9,0c0.9,0,1.9,0,3,0c7.1,0,16.3-0.2,18.7-0.3c6.4-0.4,10.2-1.6,13-4
	c3.9-3.4,5.1-8.3,5.1-20.9C930.8,445.4,930.7,442.7,930.5,440.4 M916.9,463.9c-2,2.3-5.3,2.8-18.4,2.8c-2.9,0-5.3,0-7.4,0
	c-0.3,0-0.6,0-0.9,0c-7.3-0.1-9.3-0.5-11.4-1.7c-2.8-1.4-3.6-4.6-3.6-14.5c0-16.1,0.3-16.3,21.9-16.3c11.6,0,17.1,0,19.7,2.5
	c0.3,0.3,0.5,0.6,0.8,0.9c1.5,2.3,1.6,6.1,1.6,12.6C919.1,458.8,918.6,462,916.9,463.9z"/>
<path id="XMLID_730_" class="st0" d="M998.2,455.2c3-0.5,4.9-1.4,6.4-3.3s2.2-5,2.2-10.6c0-5.8-1.1-9.7-3.3-12.1
	c-2.7-3-6.8-4-15.6-4H945v50.6h11.6V460h28.1c7.7-0.1,9.3,1.3,9.4,8.2v7.6h11.8v-10C1006,457.7,1004.5,455.8,998.2,455.2
	 M994.1,447.7c-1.2,2.3-4.1,3-9.8,3h-27.7v-16h28c4.8,0,7.5,0.4,8.9,2c0.2,0.3,0.5,0.6,0.6,0.9v0.1c0.6,1.3,0.8,3,0.8,5.4
	C995,445,994.8,446.5,994.1,447.7z"/>
<polyline id="XMLID_729_" class="st0" points="347.2,521.5 347.2,541.6 307.3,541.6 307.3,521.5 295.6,521.5 295.6,572.1 
	307.3,572.1 307.3,551 347.2,551 347.2,572.1 358.9,572.1 358.9,521.5 347.2,521.5 "/>
<rect id="XMLID_728_" x="374.1" y="521.5" class="st0" width="11.7" height="50.6"/>
<path id="XMLID_727_" class="st0" d="M457.7,546.4c-3.2-3.4-7.8-4.2-23-4.2h-8.6c-8,0-10.9-0.3-12.6-1.3c-1.4-0.8-2.1-2.3-2.1-4.5
	c0-2.4,0.9-4.1,2.7-4.9c2.3-1.1,8.9-1.7,18.5-1.7c5.6,0,10.5,0.6,12.6,1.6c1.6,0.8,2.4,2.3,2.4,5.2H459v-1c0-7.8-2.2-11.2-8.5-13
	c-3.5-1.1-9-1.4-19.1-1.4c-16.7,0-24.4,1.2-27.8,4.4c-2.4,2.1-3.8,6.8-3.8,12.4c0,4.5,1.1,7.7,3.6,9.8c2.8,2.6,7,3.4,17.7,3.5h7.3
	c13.8,0.1,13.9,0.1,16,0.5c3.5,0.8,4.8,2.2,4.8,5.2c0,1.6-0.5,3.1-1.5,4.3c-0.9,1.1-2.4,1.6-5.2,2c-5.5,0.7-9.4,0.9-15.7,0.9
	c-7.4,0-11.4-0.5-13.2-1.5c-1.4-0.8-2.1-2.6-2.1-5.8v-0.5H400c-0.1,1-0.1,2.1-0.1,2.6c0,4.8,1,7.8,3.3,10c3.2,3,8.9,3.9,27.1,3.9
	c17.1,0,23.6-1.1,26.9-4.3c2.5-2.4,3.6-6.1,3.6-11.4C460.8,551.9,459.8,548.6,457.7,546.4"/>
<path id="XMLID_726_" class="st0" d="M545.8,553.9v1.1c0,5.2-1.9,7.3-7.4,7.8l-15.5,0.3c-15.8,0-17-1.1-17-15.8
	c0-10.9,0.6-13.7,3.5-15.2c2.4-1.3,5.8-1.6,17.7-1.6c16.7,0,18.2,0.7,18.2,8h11.1c0-6.2-1.1-10.5-3.3-12.9c-3.2-3.6-9-4.5-26.6-4.5
	c-16,0-21.2,0.6-25.6,3c-5.3,3-6.8,7.7-6.8,21.8c0,7.1,0.4,13.1,1.1,15.6c1,3.9,2.9,6.6,5.8,8.2c4.5,2.4,8.2,2.8,28.4,2.8
	c16.4,0,21.2-0.9,24.7-4.8c2.1-2.3,2.9-5.8,2.9-13v-0.8H545.8"/>
<path id="XMLID_723_" class="st0" d="M609.6,521.5h-15.8l-29,50.6h13.1l5.6-10h36.1l5.8,10h12.7L609.6,521.5 M588,553.9l13.6-24.2
	l13.7,24.2H588z"/>
<polyline id="XMLID_722_" class="st0" points="658.2,562.6 658.2,521.5 646.5,521.5 646.5,572.1 695.1,572.1 695.1,562.6 
	658.2,562.6 "/>
<polyline id="XMLID_721_" class="st0" points="716.9,562.6 716.9,521.5 705.3,521.5 705.3,572.1 753.9,572.1 753.9,562.6 
	716.9,562.6 "/>
<rect id="XMLID_720_" x="764.1" y="521.5" class="st0" width="11.7" height="50.6"/>
<polyline id="XMLID_719_" class="st0" points="847.1,521.5 847.3,563.6 809.3,521.5 791.2,521.5 791.2,572.1 802.5,572.1 
	802.3,530.2 840,572.1 858.2,572.1 858.2,521.5 847.1,521.5 "/>
<path id="XMLID_718_" class="st0" d="M903.3,545v7.6h22.5l0,0c0,3.5-0.4,5.9-1.4,7.2c-2.3,3.3-3.9,3.6-18.9,3.6
	c-13.7,0-16.6-0.4-18.8-2.4c-2.1-1.8-2.7-5.2-2.7-15.1c0-7.9,0.5-11.2,2.1-13.1c0.8-1,1.8-1.6,4.1-2c0.3-0.1,0.6-0.1,0.9-0.1
	c3.2-0.4,8.5-0.5,18.1-0.5c9.9,0,12.4,0.3,14.4,1.9c1.4,1.1,1.8,2.3,1.9,5.5H937c0-5.6-1.1-9.6-3.3-12c-3.2-3.6-8.5-4.7-23.3-4.7
	c-9.6,0-15.2,0.1-19.3,0.4c-0.3,0-0.6,0-0.9,0.1c-1.8,0.1-3.3,0.3-4.8,0.5c-4,0.5-7,1.9-9.1,4.2c-3.2,3.6-4.1,7.8-4.1,21.2
	c0,7.2,0.2,10.5,0.8,13.4c1.1,5.4,3.6,8.3,8.4,10.2c3.1,1.2,9.6,1.7,23.1,1.7c15.2,0,19.6-0.2,22.3-0.8c3.9-1,6.4-2.7,8-5.4
	c1.6-3.1,2.2-6.1,2.3-13.6c0-0.3,0-0.6,0-0.9c0-0.5,0-0.9,0-1.4v-5.4h-33.8"/>
<g id="XMLID_66_">
</g>
<g id="XMLID_67_">
</g>
<g id="XMLID_68_">
</g>
<g id="XMLID_69_">
</g>
<g id="XMLID_70_">
</g>
<g id="XMLID_71_">
</g>
</svg>
