<?xml version="1.0" encoding="utf-8"?>
<!-- Generator: Adobe Illustrator 24.0.1, SVG Export Plug-In . SVG Version: 6.00 Build 0)  -->
<svg version="1.1" id="Layer_1" xmlns="http://www.w3.org/2000/svg" xmlns:xlink="http://www.w3.org/1999/xlink" x="0px" y="0px"
	 viewBox="0 0 21.57 21.5" style="enable-background:new 0 0 21.57 21.5;" xml:space="preserve">
<style type="text/css">
	.st0{fill:#1D1D1B;}
</style>
<path class="st0" d="M16.91,0.16H4.65c-2.48,0-4.48,1.99-4.48,4.45V16.9c0,2.46,2,4.45,4.48,4.45h6.13h0.5h2.33h0.5h2.8
	c2.46,0,4.48-1.99,4.48-4.45V4.61C21.39,2.15,19.37,0.16,16.91,0.16z M20.11,16.9c0,1.77-1.43,3.2-3.2,3.2h-2.8v-6.98h2.36
	l0.28-2.82h-2.64l0-0.83c0-0.28-0.01-0.56,0-0.8l0-0.03c0-0.78,0.26-1.04,1.04-1.04h1.55V4.92l-2.87,0
	c-1.67,0.15-2.64,0.98-2.94,2.55c-0.05,0.28-0.07,0.58-0.09,0.92l-0.02,1.96H9.17v2.79h1.61v6.96H4.65c-1.77,0-3.2-1.43-3.2-3.2
	V4.61c0-1.74,1.43-3.2,3.2-3.2h12.26c1.77,0,3.2,1.46,3.2,3.2V16.9z"/>
</svg>
