<?xml version="1.0" encoding="utf-8"?>
<!-- Generator: Adobe Illustrator 24.0.1, SVG Export Plug-In . SVG Version: 6.00 Build 0)  -->
<svg version="1.1" id="Layer_1" xmlns="http://www.w3.org/2000/svg" xmlns:xlink="http://www.w3.org/1999/xlink" x="0px" y="0px"
	 viewBox="0 0 497 167" style="enable-background:new 0 0 497 167;" xml:space="preserve">
<style type="text/css">
	.st0{fill:#0B4E92;}
</style>
<g>
	<polygon class="st0" points="2.67,164.8 53.64,164.8 53.64,106.54 89.06,106.54 102.83,71.26 53.64,71.26 53.64,38.52 
		113.51,38.52 126.56,3.42 2.67,3.42 	"/>
	<polygon class="st0" points="142.06,164.8 192.44,164.8 192.44,3.42 142.15,3.42 	"/>
	<path class="st0" d="M436.54,3.42h-52.31l-58,161.4h48.69l6.27-21.7h56.76l6.56,21.7h50.19L436.54,3.42z M390.16,112.09
		l19.41-67.19l20.11,67.19H390.16z"/>
	<polygon class="st0" points="278.17,71.26 278.17,38.52 338.06,38.52 351.22,3.42 227.23,3.42 227.23,164.8 278.17,164.8 
		278.17,106.54 313.55,106.54 327.42,71.26 	"/>
</g>
</svg>
