<?xml version="1.0" encoding="utf-8"?>
<!-- Generator: Adobe Illustrator 24.0.1, SVG Export Plug-In . SVG Version: 6.00 Build 0)  -->
<svg version="1.1" id="Layer_1" xmlns="http://www.w3.org/2000/svg" xmlns:xlink="http://www.w3.org/1999/xlink" x="0px" y="0px"
	 viewBox="0 0 582 115" style="enable-background:new 0 0 582 115;" xml:space="preserve">
<g>
	<g>
		<path d="M68.07,71.62h-40.5v41.5H2.46V8.94h69.69v19.39H27.57V52.3h40.5V71.62z"/>
		<path d="M84.97,15.74c0-3.43,1.24-6.25,3.72-8.44C91.18,5.1,94.39,4,98.35,4c3.96,0,7.18,1.1,9.66,3.29
			c2.48,2.19,3.72,5.01,3.72,8.44s-1.24,6.25-3.72,8.44c-2.48,2.19-5.7,3.29-9.66,3.29c-3.96,0-7.18-1.1-9.66-3.29
			C86.21,21.99,84.97,19.17,84.97,15.74z M110.59,113.12H86.4V35.7h24.19V113.12z"/>
		<path d="M151.25,35.7l0.79,9.09c5.34-7.01,12.71-10.52,22.11-10.52c8.06,0,14.08,2.41,18.07,7.23c3.98,4.82,6.05,12.07,6.19,21.75
			v49.87h-24.18V64.25c0-3.91-0.79-6.79-2.36-8.62s-4.44-2.76-8.59-2.76c-4.72,0-8.23,1.86-10.52,5.58v54.67h-24.11V35.7H151.25z"/>
		<path d="M249.5,8.94l23.25,72.48l23.18-72.48H329v104.18h-25.19V88.8l2.43-49.8l-25.19,74.13h-16.6l-25.26-74.2l2.43,49.87v24.33
			h-25.11V8.94H249.5z"/>
		<path d="M384.97,114.55c-11.88,0-21.49-3.54-28.84-10.63c-7.35-7.08-11.02-16.3-11.02-27.66v-2c0-7.92,1.47-14.91,4.4-20.97
			c2.93-6.06,7.21-10.74,12.84-14.06c5.63-3.31,12.31-4.97,20.04-4.97c10.88,0,19.46,3.37,25.76,10.12
			c6.3,6.75,9.44,16.16,9.44,28.23V82h-47.94c0.86,4.34,2.74,7.75,5.65,10.23c2.91,2.48,6.68,3.72,11.31,3.72
			c7.63,0,13.6-2.67,17.89-8.02l11.02,13.02c-3.01,4.15-7.26,7.45-12.77,9.91C397.24,113.33,391.32,114.55,384.97,114.55z
			 M382.25,52.87c-7.06,0-11.26,4.68-12.59,14.03h24.33v-1.86c0.1-3.86-0.88-6.86-2.93-8.98C389.01,53.94,386.07,52.87,382.25,52.87
			z"/>
		<path d="M463.7,95.95c3.39,0,6.01-0.92,7.87-2.76c1.86-1.84,2.76-4.4,2.72-7.69h22.61c0,8.49-3.04,15.46-9.12,20.89
			c-6.08,5.44-13.92,8.16-23.51,8.16c-11.26,0-20.13-3.53-26.62-10.59c-6.49-7.06-9.73-16.84-9.73-29.34v-1
			c0-7.82,1.44-14.73,4.33-20.71c2.88-5.99,7.05-10.59,12.49-13.81s11.88-4.83,19.32-4.83c10.06,0,18.06,2.79,23.97,8.37
			s8.87,13.14,8.87,22.68h-22.61c0-4.01-0.98-7.08-2.93-9.23c-1.96-2.15-4.58-3.22-7.87-3.22c-6.25,0-9.9,3.98-10.95,11.95
			c-0.33,2.53-0.5,6.01-0.5,10.45c0,7.78,0.93,13.17,2.79,16.17C456.68,94.45,459.64,95.95,463.7,95.95z"/>
		<path d="M534.33,44c5.15-6.49,11.74-9.73,19.75-9.73c8.54,0,14.98,2.53,19.32,7.59c4.34,5.06,6.56,12.52,6.65,22.4v48.87h-24.18
			v-48.3c0-4.1-0.84-7.12-2.51-9.05c-1.67-1.93-4.51-2.9-8.51-2.9c-4.96,0-8.47,1.57-10.52,4.72v55.53h-24.11V3.22h24.11V44z"/>
	</g>
</g>
</svg>
