<?xml version="1.0" encoding="utf-8"?>
<!-- Generator: Adobe Illustrator 24.0.1, SVG Export Plug-In . SVG Version: 6.00 Build 0)  -->
<svg version="1.1" id="Layer_1" xmlns="http://www.w3.org/2000/svg" xmlns:xlink="http://www.w3.org/1999/xlink" x="0px" y="0px"
	 viewBox="0 0 21.57 21.5" style="enable-background:new 0 0 21.57 21.5;" xml:space="preserve">
<style type="text/css">
	.st0{fill:#ffffff;}
</style>
<g>
	<path class="st0" d="M16.93,0.15H4.64c-2.46,0-4.46,2-4.46,4.46v12.29c0,2.46,2,4.46,4.46,4.46h12.29c2.46,0,4.46-2,4.46-4.46V4.61
		C21.38,2.15,19.38,0.15,16.93,0.15z M20.13,16.89c0,1.76-1.43,3.2-3.2,3.2H4.64c-1.76,0-3.2-1.44-3.2-3.2V4.61
		c0-1.76,1.44-3.2,3.2-3.2h12.29c1.76,0,3.2,1.43,3.2,3.2V16.89z"/>
	<path class="st0" d="M16.27,3.99c-0.52,0-0.94,0.42-0.94,0.94c0,0.52,0.42,0.94,0.94,0.94c0.52,0,0.94-0.42,0.94-0.94
		C17.22,4.41,16.79,3.99,16.27,3.99z"/>
	<path class="st0" d="M10.78,6.03c-2.85,0-5.18,2.32-5.18,5.18c0,2.85,2.32,5.18,5.18,5.18c2.85,0,5.18-2.32,5.18-5.18
		C15.96,8.35,13.64,6.03,10.78,6.03z M10.78,15.12c-2.16,0-3.92-1.76-3.92-3.92s1.76-3.92,3.92-3.92c2.16,0,3.92,1.76,3.92,3.92
		S12.94,15.12,10.78,15.12z"/>
</g>
</svg>
