<?xml version="1.0" encoding="utf-8"?>
<!-- Generator: Adobe Illustrator 24.0.1, SVG Export Plug-In . SVG Version: 6.00 Build 0)  -->
<svg version="1.1" id="Layer_1" xmlns="http://www.w3.org/2000/svg" xmlns:xlink="http://www.w3.org/1999/xlink" x="0px" y="0px"
	 viewBox="0 0 21.57 21.5" style="enable-background:new 0 0 21.57 21.5;" xml:space="preserve">
<style type="text/css">
	.st0{fill:#C6203C;}
</style>
<g>
	<path class="st0" d="M16.93,21.35H4.64c-2.46,0-4.46-2-4.46-4.46V4.61c0-2.46,2-4.46,4.46-4.46h12.29c2.46,0,4.46,2,4.46,4.46V16.9
		C21.38,19.35,19.38,21.35,16.93,21.35z M4.64,1.41c-1.76,0-3.2,1.44-3.2,3.2V16.9c0,1.76,1.44,3.2,3.2,3.2h12.29
		c1.76,0,3.2-1.44,3.2-3.2V4.61c0-1.76-1.44-3.2-3.2-3.2C16.93,1.41,4.64,1.41,4.64,1.41z"/>
	<g>
		<path class="st0" d="M17.34,16.94c-0.89,0-1.74,0-2.63,0c0-0.47,0-0.92,0-1.37c0-0.97,0-1.93,0-2.9c0-0.23-0.03-0.47-0.07-0.7
			c-0.14-0.72-0.61-1.11-1.26-1.1c-0.68,0.01-1.28,0.49-1.4,1.15c-0.05,0.24-0.06,0.49-0.06,0.74c-0.01,1.38,0,2.77,0,4.17
			c-0.88,0-1.73,0-2.6,0c0-2.65,0-5.28,0-7.93c0.85,0,1.69,0,2.59,0c0,0.32,0,0.65,0,1.06c0.1-0.09,0.14-0.12,0.17-0.15
			c0.78-1.06,1.86-1.29,3.07-1.01c1.18,0.27,1.82,1.1,2.08,2.25c0.09,0.38,0.13,0.77,0.14,1.16c0.02,1.46,0.01,2.92,0.01,4.39
			C17.35,16.76,17.34,16.83,17.34,16.94z"/>
		<path class="st0" d="M6.98,16.94c-0.87,0-1.72,0-2.59,0c0-2.64,0-5.28,0-7.94c0.85,0,1.7,0,2.59,0
			C6.98,11.62,6.98,14.26,6.98,16.94z"/>
		<path class="st0" d="M5.7,7.31c-0.87,0-1.48-0.56-1.49-1.36c0-0.79,0.62-1.37,1.48-1.38c0.85-0.01,1.48,0.57,1.49,1.38
			C7.18,6.74,6.58,7.31,5.7,7.31z"/>
	</g>
</g>
</svg>
