<?xml version="1.0" encoding="utf-8"?>
<!-- Generator: Adobe Illustrator 24.0.1, SVG Export Plug-In . SVG Version: 6.00 Build 0)  -->
<svg version="1.1" id="layer" xmlns="http://www.w3.org/2000/svg" xmlns:xlink="http://www.w3.org/1999/xlink" x="0px" y="0px"
	 viewBox="0 0 613.3 355.6" style="enable-background:new 0 0 613.3 355.6;" xml:space="preserve">
<style type="text/css">
	.st0{fill:#791343;}
	.st1{fill:#F4B700;}
	.st2{fill:#DF1514;}
	.st3{fill:#008F57;}
	.st4{fill:#245A94;}
	.st5{fill:#040000;}
</style>
<g>
	<g>
		<path class="st0" d="M232,23.7c69.6,0,126.6,52.6,131.6,119.3c0.2-3.2,0.4-6.4,0.4-9.6C364,62.2,304.9,4.5,232,4.5
			S100,62.2,100,133.4c0,3.2,0.2,6.4,0.4,9.6C105.5,76.3,162.4,23.7,232,23.7"/>
		<path class="st1" d="M341.5,21.2c-10.4,0-20.4,1.5-29.9,4.1c4.3,2.7,10.7,7.1,15.9,12.6c4.6-0.5,9.2-0.9,14-0.9
			c57.2,0,104,43.2,108.2,98.1c0.2-2.6,0.3-5.2,0.3-7.9C449.9,68.7,401.4,21.2,341.5,21.2"/>
		<path class="st2" d="M422.7,41.8c-4.1,0-8.1,0.3-12,0.8c4.2,2.8,10.8,7.6,14.7,12.4c47.1,1.3,85.3,36.6,88.7,81.3
			c0.2-2.2,0.3-4.4,0.3-6.6C514.4,81.1,473.3,41.8,422.7,41.8"/>
		<path class="st3" d="M58.2,174.6c0,0-9.6-7.3-2.3-14.1c0,0,4.5-4,11.9,0c0,0,75.2,28.8,174.7,13c0,0,46.4-8.5,55.4-11.9
			c0,0,83.1-24.9,131.1-22.6c0,0,57.7-2.3,118.7,16.9c0,0,16.4,2.8,13,14.1c0,0-1.7,9.6-18.1,0.6c0,0-89.3-28.8-175.2-10.2
			c-49,10.6-95.7,26-145.8,31.2c-14.9,1.6-29.9,2.6-44.8,2.8c-33.2,0.6-64.4-4.3-96.4-12.7C72.9,179.8,65.2,177.8,58.2,174.6"/>
		<path class="st4" d="M67.2,190.5c-7.4-3.1-15.1-1.4-18.6,6.2c0,0-9.6,17.5,17.5,25.4c64.2,18.8,126.9,22.5,192.8,10
			c18.4-3.5,36.6-8.4,54.4-14.2c29.9-9.8,61.1-16.5,92.4-19.4c48.9-4.6,99.3,3.6,145.4,20.3c0,0,11.9,1.1,15.8-11.3
			c0,0,4.5-12.4-13.6-20.9c0,0-63.3-27.7-156.6-17.5c-24,2.6-47.7,7.1-71,13.4c-41.4,11.2-82.3,24.7-125.4,27.3
			c-26.4,1.6-53.4-1-79.4-5.3C102.7,201.5,84.4,197.7,67.2,190.5"/>
		<path class="st5" d="M417.4,329.4c0,1.1-0.7,2.2-2.2,3.2c-1.4,1-3,1.5-4.4,1.5h-51.4c-1.5,0-3-0.5-4.4-1.5c-1.5-1-2.2-2.1-2.2-3.2
			v-7c0-1.6,0.4-2.8,1.1-3.7c0.5-0.7,1.7-1.6,3.5-2.6l7.5-4.3V323h40.5c0-4.4,0.1-7.2,0.4-8.1c0.3-1.5,1.3-2.8,3-3.9
			c2.9-1.7,5.8-3.4,8.7-5.1v23.5H417.4z M382,294.1c0,1.4-0.6,2.5-1.7,3.4s-2.6,1.3-4.4,1.3s-3.2-0.4-4.3-1.3
			c-1.1-0.9-1.7-2-1.7-3.4s0.5-2.6,1.7-3.4c1.1-0.9,2.5-1.3,4.3-1.3s3.3,0.5,4.4,1.3C381.4,291.5,382,292.6,382,294.1 M402.6,294.1
			c0,1.4-0.6,2.5-1.7,3.4s-2.6,1.3-4.3,1.3c-1.8,0-3.3-0.4-4.4-1.3s-1.7-2-1.7-3.4s0.6-2.6,1.7-3.4c1.1-0.9,2.6-1.3,4.4-1.3
			s3.2,0.5,4.3,1.3C402,291.5,402.6,292.6,402.6,294.1"/>
		<path class="st5" d="M308.8,278.5c0-1.5,0.5-3,1.5-4.4c1-1.5,2.1-2.2,3.2-2.2h23.6c-1.7,2.9-2.7,4.6-4.4,7.5
			c-1.1,1.7-2.4,2.7-3.9,3c-1,0.2-3.7,0.4-8.1,0.4"/>
		<path class="st5" d="M483.7,334.1h-14.8v3.3c0,3.9-2,7.4-6.1,10.7c-4.1,3.2-8.6,4.9-13.6,4.9s-9.5-1.6-13.6-4.9
			c-4.1-3.2-6.1-6.8-6.1-10.7V323h12v11c0,2.1,0.6,3.9,1.8,5.4c1.4,1.9,3.3,2.8,5.8,2.8s4.4-0.9,5.9-2.8c1.2-1.6,1.8-3.4,1.8-5.4
			v-51.7c0-2.6,1.3-4.7,3.9-6.6c2.7-1.4,5.4-2.9,8.1-4.4v51.6h14.8v11.2H483.7z M441.5,317h-12v-45.4c3.2,2.1,7,5,11.5,8.7
			c0.4,0.5,0.6,1.6,0.6,3.2V317H441.5z"/>
		<path class="st5" d="M531.2,327c0,1.5-0.3,3-0.9,4.3c-0.8,1.9-2,2.8-3.6,2.8H468l8.5-11.1h42.7v-6.8h-12.3c-3.1,0-5.8-1-8-3.1
			c-2.1-2-3.1-4.2-3.1-6.8c0-2.9,1.1-5.5,3.4-7.6c2.2-2.1,5.7-3.1,10.2-3.1c0.9,0,2.3,0,4.2,0.1c1.9,0,3.3,0.1,4.3,0.1
			c5.7,0,10.1-1.4,13.4-4.1V327H531.2z M508.8,277.2c0,1.4-0.6,2.5-1.7,3.4c-1.1,0.9-2.6,1.3-4.4,1.3c-1.8,0-3.2-0.4-4.3-1.3
			s-1.7-2-1.7-3.4s0.5-2.5,1.7-3.4c1.1-0.9,2.5-1.3,4.3-1.3s3.2,0.4,4.4,1.3C508.2,274.6,508.8,275.8,508.8,277.2 M519.2,308.6v-5.7
			h-7.5c-2.7,0-4.1,1-4.1,3.1c0,1.8,1.3,2.6,3.8,2.6H519.2z M529.4,277.2c0,1.4-0.6,2.5-1.7,3.4c-1.1,0.9-2.6,1.3-4.4,1.3
			c-1.8,0-3.2-0.4-4.3-1.3s-1.7-2-1.7-3.4s0.6-2.5,1.7-3.4c1.1-0.9,2.6-1.3,4.3-1.3c1.8,0,3.3,0.4,4.4,1.3
			C528.8,274.6,529.4,275.8,529.4,277.2"/>
		<path class="st5" d="M572.1,334.1h-26.9v-62.8c2.7,1.3,5.4,2.7,8,4c2.7,1.7,4,3.8,4,6.2v41.4H572v11.2H572.1z"/>
		<path class="st5" d="M606.8,331c0,0.9-0.5,1.7-1.4,2.2c-0.9,0.6-2,0.9-3.2,0.9h-46.6l8.5-11.1h30.6c-0.2-2.5-0.2-4.1,0.1-4.7
			c0.4-1.2,1.6-2.4,3.6-3.4l8.3-4.1V331H606.8z M605.4,292.8c0,1.4-0.6,2.5-1.7,3.4c-1.1,0.9-2.6,1.3-4.3,1.3
			c-1.8,0-3.3-0.4-4.4-1.3c-1.1-0.9-1.7-2-1.7-3.4s0.5-2.5,1.7-3.4c1.1-0.9,2.6-1.3,4.4-1.3c1.8,0,3.2,0.4,4.3,1.3
			C604.8,290.3,605.4,291.4,605.4,292.8"/>
	</g>
	<path class="st5" d="M96.1,271.8l23.9,62.3h-13.1l-5.2-14.8H77.3l-5,14.8H59.9l23.7-62.3H96.1z M81.2,308.2h16.7l-8.5-24
		L81.2,308.2z"/>
	<polygon class="st5" points="135.7,271.8 135.7,301.8 157.8,271.8 172,271.8 149.5,302.3 172.2,334.1 157.1,334.1 135.7,303.1 
		135.7,334.1 123.9,334.1 123.9,271.8 	"/>
	<rect x="176.4" y="271.8" class="st5" width="12.4" height="62.3"/>
	<g>
		<path class="st5" d="M204.1,327.6c-4.3-5-5.1-10.5-5.1-18.7v-37.1h11.8V306v2.4c0,5.1,0.1,8.9,1.9,11.3c2.5,3.3,5.9,4.1,10.9,4.1
			h14v10.3h-15C214.5,334.1,209.1,333.5,204.1,327.6"/>
	</g>
	<path class="st5" d="M268.6,271.8l23.9,62.3h-13.1l-5.1-14.8h-24.4l-5,14.8h-12.5l23.7-62.3H268.6z M253.7,308.2h16.7l-8.5-24
		L253.7,308.2z"/>
	<polygon class="st5" points="283.3,282.7 283.3,271.9 324,271.9 321.3,282.7 313.6,282.7 313.6,334.1 301.4,334.1 301.4,282.7 	"/>
	<polygon class="st5" points="21.7,271.8 44.6,316.6 44.1,271.8 56.1,271.8 56.1,334.1 42.5,334.1 18.3,287 18.9,334.1 6.8,334.1 
		6.8,271.8 	"/>
</g>
</svg>
