<?xml version="1.0" encoding="utf-8"?>
<!-- Generator: Adobe Illustrator 19.0.0, SVG Export Plug-In . SVG Version: 6.00 Build 0)  -->
<svg version="1.1" id="Layer_1" xmlns="http://www.w3.org/2000/svg" xmlns:xlink="http://www.w3.org/1999/xlink" x="0px" y="0px"
	 viewBox="128 234 867 334" enable-background="new 128 234 867 334" xml:space="preserve">
<g id="XMLID_558_">
	<polyline id="XMLID_580_" fill="#C6203D" points="133.7,274.7 153.7,274.7 153.7,309.1 222.1,309.1 222.1,274.7 242.1,274.7 
		242.1,361.4 222.1,361.4 222.1,325.2 153.7,325.2 153.7,361.4 133.7,361.4 133.7,274.7 	"/>
	<path id="XMLID_577_" fill="#C6203D" d="M289.8,344.2l-9.6,17.2h-22.5l49.7-86.7h27.2l48.9,86.7h-21.8l-9.9-17.2H289.8
		 M320.8,288.7l-23.3,41.5h46.8L320.8,288.7z"/>
	<path id="XMLID_576_" fill="#C6203D" d="M414.1,333.9v0.9c0,5.6,1,8.6,3.5,10c3.1,1.8,9.9,2.6,22.6,2.6c10.8,0,17.6-0.4,26.9-1.6
		c4.9-0.7,7.4-1.6,9-3.4c1.7-2.1,2.6-4.7,2.6-7.4c0-5.1-2.2-7.5-8.2-8.8c-3.6-0.8-3.8-0.8-27.4-0.9h-12.5c-18.3-0.1-25.5-1.6-30.3-6
		c-4.2-3.6-6.1-9.1-6.1-16.8c0-9.6,2.3-17.6,6.5-21.2c5.9-5.5,19.1-7.5,47.7-7.5c17.4,0,26.8,0.7,32.8,2.5
		c10.8,3.1,14.6,9,14.6,22.4v1.7h-19.5c-0.1-5.1-1.4-7.7-4.2-9c-3.6-1.7-12-2.7-21.6-2.7c-16.4,0-27.8,1-31.7,3
		c-3.1,1.4-4.7,4.4-4.7,8.5c0,3.8,1.2,6.2,3.6,7.7c3,1.7,7.9,2.2,21.6,2.2H454c26,0,33.9,1.4,39.4,7.3c3.6,3.8,5.3,9.5,5.3,18.1
		c0,9.1-2,15.3-6.2,19.5c-5.7,5.5-16.9,7.3-46.1,7.3c-31.2,0-40.9-1.4-46.4-6.6c-3.9-3.8-5.6-9-5.6-17.2c0-0.8,0-2.7,0.1-4.4h19.6"
		/>
	<path id="XMLID_575_" fill="#C6203D" d="M537.6,333.9v0.9c0,5.6,1,8.6,3.5,10c3.1,1.8,9.9,2.6,22.6,2.6c10.8,0,17.6-0.4,26.9-1.6
		c4.9-0.7,7.4-1.6,9-3.4c1.7-2.1,2.6-4.7,2.6-7.4c0-5.1-2.2-7.5-8.2-8.8c-3.6-0.8-3.8-0.8-27.4-0.9h-12.5c-18.3-0.1-25.5-1.6-30.3-6
		c-4.2-3.6-6.1-9.1-6.1-16.8c0-9.6,2.3-17.6,6.5-21.2c5.9-5.5,19.1-7.5,47.7-7.5c17.4,0,26.8,0.7,32.8,2.5
		c10.8,3.1,14.6,9,14.6,22.4v1.7h-19.5c-0.1-5.1-1.4-7.7-4.2-9c-3.6-1.7-12-2.7-21.6-2.7c-16.4,0-27.8,1-31.7,3
		c-3.1,1.4-4.7,4.4-4.7,8.5c0,3.8,1.2,6.2,3.6,7.7c3,1.7,7.9,2.2,21.6,2.2h14.7c26,0,33.9,1.4,39.4,7.3c3.6,3.8,5.3,9.5,5.3,18.1
		c0,9.1-2,15.3-6.2,19.5c-5.7,5.5-16.9,7.3-46.1,7.3c-31.2,0-41-1.4-46.4-6.6c-3.9-3.8-5.6-9-5.6-17.2c0-0.8,0-2.7,0.1-4.4h19.6"/>
	<path id="XMLID_572_" fill="#C6203D" d="M664.5,344.2l-9.6,17.2h-22.5l49.6-86.7h27.2l48.9,86.7h-21.8l-9.9-17.2H664.5
		 M695.4,288.7l-23.3,41.5h46.8L695.4,288.7z"/>
	<polyline id="XMLID_571_" fill="#C6203D" points="769.8,274.7 800.8,274.7 866,346.8 865.6,274.7 884.7,274.7 884.7,361.4 
		853.5,361.4 788.7,289.6 789.1,361.4 769.8,361.4 769.8,274.7 	"/>
	<polyline id="XMLID_570_" fill="#C6203D" points="133.7,406.6 164.8,406.6 229.9,478.8 229.5,406.6 248.6,406.6 248.6,493.4 
		217.4,493.4 152.7,421.6 153.1,493.4 133.7,493.4 133.7,406.6 	"/>
	<path id="XMLID_566_" fill="#C6203D" d="M296.3,476.2l-9.6,17.2h-22.5l49.7-86.7H341l48.9,86.7h-21.8l-9.9-17.2H296.3 M327.3,420.7
		L304,462.2h46.8L327.3,420.7z"/>
	<path id="XMLID_562_" fill="#C6203D" d="M401.6,406.6h72c16.5,0,27.2,3.1,33,9.5c5.3,6,7.4,15.7,7.4,34.8c0,19.4-2.5,28.9-9.1,35
		c-5.5,5.1-14.7,7.4-29.2,7.4h-74.1L401.6,406.6 M471.3,477.5c7,0,11.8-0.9,15.3-2.9c5.1-2.7,7.1-9.4,7.1-22.8
		c0-24.1-3.8-28.9-22.5-28.9h-49.7v54.5L471.3,477.5L471.3,477.5z"/>
	<polyline id="XMLID_561_" fill="#C6203D" points="535.3,406.6 627.4,406.6 627.4,421.9 555,421.9 555,442.4 623.9,442.4 623.9,456 
		555,456 555,478.1 628.2,478.1 628.2,493.4 535.3,493.4 535.3,406.6 	"/>
	<polyline id="XMLID_560_" fill="#C6203D" points="648.4,406.6 740.5,406.6 740.5,421.9 668.1,421.9 668.1,442.4 737,442.4 737,456 
		668.1,456 668.1,478.1 741.3,478.1 741.3,493.4 648.4,493.4 648.4,406.6 	"/>
	<polyline id="XMLID_559_" fill="#C6203D" points="761.5,406.6 792.4,406.6 833.2,471.9 873.9,406.6 904.5,406.6 904.5,493.4 
		884.8,493.4 885.6,422 840.8,493.4 825,493.4 780.4,422 781,493.4 761.5,493.4 761.5,406.6 	"/>
</g>
<g id="XMLID_557_">
	<path id="XMLID_67_" d="M144,549.7h-14v-1.3h14V549.7z"/>
</g>
<g id="XMLID_66_">
</g>
<g id="XMLID_69_">
</g>
<g id="XMLID_70_">
</g>
<g id="XMLID_71_">
</g>
<g id="XMLID_72_">
</g>
<g id="XMLID_73_">
</g>
</svg>
